<?xml version="1.0" encoding="utf-8"?>
<!-- Generator: Adobe Illustrator 23.0.0, SVG Export Plug-In . SVG Version: 6.00 Build 0)  -->
<svg version="1.1" id="Layer_1" xmlns="http://www.w3.org/2000/svg" xmlns:xlink="http://www.w3.org/1999/xlink" x="0px" y="0px"
	 viewBox="0 0 49.2 43.3" style="enable-background:new 0 0 49.2 43.3;" xml:space="preserve">
<style type="text/css">
	.st0{fill:#FFFFFF;stroke:#FFFFFF;stroke-miterlimit:10;}
	.st1{fill:#FFFFFF;}
</style>
<g>
	<g id="Icon-Heart" transform="translate(178.000000, 230.000000)">
		<path id="Fill-18" class="st0" d="M-153.4-187.4l-0.8-0.7c-18.2-14.8-23.1-20-23.1-28.5c0-7,5.7-12.6,12.6-12.6
			c5.8,0,9.1,3.3,11.3,5.8c2.2-2.5,5.5-5.8,11.3-5.8c7,0,12.6,5.7,12.6,12.6c0,8.5-4.9,13.7-23.1,28.5L-153.4-187.4L-153.4-187.4z
			 M-164.7-226.6c-5.5,0-10,4.5-10,10c0,7.3,4.6,12.1,21.3,25.8c16.7-13.7,21.3-18.5,21.3-25.8c0-5.5-4.5-10-10-10
			c-5,0-7.7,3-9.8,5.4l-1.5,1.7l-1.5-1.7C-157-223.6-159.7-226.6-164.7-226.6L-164.7-226.6z"/>
	</g>
</g>
<ellipse class="st1" cx="13.5" cy="14.9" rx="12.2" ry="12.2"/>
<circle class="st1" cx="35.3" cy="14.9" r="12.2"/>
<polygon class="st1" points="22.6,19.6 8.4,25 16.7,34.6 24.6,40.3 41.7,25.2 "/>
</svg>
