<?xml version="1.0" encoding="utf-8"?>
<!-- Generator: Adobe Illustrator 23.0.0, SVG Export Plug-In . SVG Version: 6.00 Build 0)  -->
<svg version="1.1" id="Layer_1" xmlns:sketch="http://www.bohemiancoding.com/sketch/ns"
	 xmlns="http://www.w3.org/2000/svg" xmlns:xlink="http://www.w3.org/1999/xlink" x="0px" y="0px" viewBox="0 0 20.7 21.7"
	 style="enable-background:new 0 0 20.7 21.7;" xml:space="preserve">
<style type="text/css">
	.st0{fill-rule:evenodd;clip-rule:evenodd;fill:#D77E8C;}
</style>
<title></title>
<desc></desc>
<g id="Page-1">
	<g id="icon-111-search">
		<path id="search" class="st0" d="M13.4,15.4c-1.4,1-3.1,1.6-4.9,1.6C3.8,17,0,13.2,0,8.5S3.8,0,8.5,0S17,3.8,17,8.5
			c0,2.3-1,4.5-2.5,6l6,6c0.3,0.3,0.3,0.7,0,1s-0.7,0.3-1,0L13.4,15.4L13.4,15.4z M8.5,16c4.1,0,7.5-3.4,7.5-7.5S12.6,1,8.5,1
			S1,4.3,1,8.5S4.3,16,8.5,16L8.5,16z"/>
	</g>
</g>
</svg>
