<?xml version="1.0" encoding="utf-8"?>
<!-- Generator: Adobe Illustrator 23.0.0, SVG Export Plug-In . SVG Version: 6.00 Build 0)  -->
<svg version="1.1" id="Layer_1" xmlns="http://www.w3.org/2000/svg" xmlns:xlink="http://www.w3.org/1999/xlink" x="0px" y="0px"
	 viewBox="0 0 49 46.4" style="enable-background:new 0 0 49 46.4;" xml:space="preserve">
<style type="text/css">
	.st0{fill:#FFFFFF;stroke:#FFFFFF;stroke-miterlimit:10;}
	.st1{fill:#FFFFFF;}
</style>
<g>
	<g id="Icon-Comment" transform="translate(328.000000, 480.000000)">
		<path id="Fill-59" class="st0" d="M-289.3-434.3c-6.8,0-10.8-3-13.2-5.6c-0.3,0-0.7,0-1,0c-14.9,0-23.8-7.4-23.8-19.6
			c0-12.1,9.1-19.6,23.8-19.6s23.8,7.5,23.8,19.6c0,7.9-3.8,13.9-10.9,17.1c0.4,2.5,1.2,4.4,2.3,6l1.5,2.1H-289.3L-289.3-434.3z
			 M-303.3-476.5c-13.3,0-21.2,6.4-21.1,17c0,5.1,2.1,17,21.2,17c0.4,0,0.9,0,1.3,0h0.9l0.4,0.5c1.5,2,4.3,4.4,9.1,5
			c-0.8-1.7-1.3-3.7-1.6-6l-0.1-1l0.9-0.4c4.6-1.9,10.2-6,10.2-15.1C-282.1-470.2-290-476.5-303.3-476.5L-303.3-476.5z"/>
	</g>
</g>
<path class="st1" d="M12.6,4.6L4.8,9.9l-2.5,8.4L3,26.7l5.5,7.5l7.4,4l10.6,1.1l6,4.3l6,0.8l-2.6-5.1l1.4-3.2l6.7-4.7l2.9-9.8
	c0,0-1.3-9.5-1.6-9.4c-0.4,0-8.3-7.8-8.3-7.8l-11.2-2L12.6,4.6z"/>
</svg>
