<?xml version="1.0" encoding="utf-8"?>
<!-- Generator: Adobe Illustrator 23.0.0, SVG Export Plug-In . SVG Version: 6.00 Build 0)  -->
<svg version="1.1" id="Layer_1" xmlns="http://www.w3.org/2000/svg" xmlns:xlink="http://www.w3.org/1999/xlink" x="0px" y="0px"
	 viewBox="0 0 47.8 41.8" style="enable-background:new 0 0 47.8 41.8;" xml:space="preserve">
<style type="text/css">
	.st0{fill:#002145;}
</style>
<g>
	<g id="Icon-Heart" transform="translate(178.000000, 230.000000)">
		<path id="Fill-18" class="st0" d="M-154.1-188.2l-0.8-0.7c-18.2-14.8-23.1-20-23.1-28.5c0-7,5.7-12.6,12.6-12.6
			c5.8,0,9.1,3.3,11.3,5.8c2.2-2.5,5.5-5.8,11.3-5.8c7,0,12.6,5.7,12.6,12.6c0,8.5-4.9,13.7-23.1,28.5L-154.1-188.2L-154.1-188.2z
			 M-165.4-227.4c-5.5,0-10,4.5-10,10c0,7.3,4.6,12.1,21.3,25.8c16.7-13.7,21.3-18.5,21.3-25.8c0-5.5-4.5-10-10-10
			c-5,0-7.7,3-9.8,5.4l-1.5,1.7l-1.5-1.7C-157.7-224.4-160.4-227.4-165.4-227.4L-165.4-227.4z"/>
	</g>
</g>
<circle class="st0" cx="12.8" cy="14.1" r="12.2"/>
<circle class="st0" cx="34.6" cy="14.1" r="12.2"/>
<polygon class="st0" points="21.9,18.8 7.7,24.2 16,33.8 23.9,39.5 41,24.4 "/>
</svg>
