<?xml version="1.0" encoding="utf-8"?>
<!-- Generator: Adobe Illustrator 23.0.0, SVG Export Plug-In . SVG Version: 6.00 Build 0)  -->
<svg version="1.1" id="Layer_1" xmlns="http://www.w3.org/2000/svg" xmlns:xlink="http://www.w3.org/1999/xlink" x="0px" y="0px"
	 viewBox="0 0 33.6 47.5" style="enable-background:new 0 0 33.6 47.5;" xml:space="preserve">
<style type="text/css">
	.st0{fill:#D77E8C;}
</style>
<g>
	<g id="Icon-Location" transform="translate(232.000000, 376.000000)">
		<path id="Fill-55" class="st0" d="M-215.2-328.5l-0.9-1.1c-0.6-0.8-15.9-18.7-15.9-29.4c0-9.3,7.6-16.8,16.8-16.8
			s16.8,7.6,16.8,16.8c0,10.7-15.3,28.7-15.9,29.4L-215.2-328.5L-215.2-328.5z M-215.2-373.5c-8,0-14.4,6.5-14.4,14.4
			c0,8.4,11.1,22.7,14.4,26.8c3.3-4.1,14.4-18.3,14.4-26.8C-200.8-367-207.2-373.5-215.2-373.5L-215.2-373.5z"/>
		<path id="Fill-56" class="st0" d="M-215.2-352.6c-3.5,0-6.4-2.9-6.4-6.4s2.9-6.4,6.4-6.4s6.4,2.9,6.4,6.4
			S-211.7-352.6-215.2-352.6L-215.2-352.6z M-215.2-363c-2.2,0-4,1.8-4,4s1.8,4,4,4s4-1.8,4-4S-213-363-215.2-363L-215.2-363z"/>
	</g>
	<polygon class="st0" points="13.4,1.9 7.6,4.3 2.4,11.6 1.2,18.1 2.7,23.1 9.7,36.5 16.4,45.2 16.8,43.7 16.8,21.5 13.5,22.7 
		12.3,21 11,17.9 12.8,12.6 14.2,11.7 16.8,1.9 	"/>
	<polygon class="st0" points="15.6,1.1 22.4,2.9 26.4,4.9 30.2,9.7 32.3,15.4 31.2,23.9 28,30.1 22,39.8 16.8,45.2 11.1,23.4 
		13.2,21.5 18,21.9 21.8,21 22.5,17 20.8,13 18.2,11.6 14.2,11.7 	"/>
</g>
</svg>
