<?xml version="1.0" encoding="utf-8"?>
<!-- Generator: Adobe Illustrator 23.0.0, SVG Export Plug-In . SVG Version: 6.00 Build 0)  -->
<svg version="1.1" id="Слой_1" xmlns="http://www.w3.org/2000/svg" xmlns:xlink="http://www.w3.org/1999/xlink" x="0px" y="0px"
	 viewBox="0 0 21.4 24.2" style="enable-background:new 0 0 21.4 24.2;" xml:space="preserve">
<style type="text/css">
	.st0{fill:#002145;}
</style>
<path class="st0" d="M20.5,6.3c0-0.4-0.4-0.7-0.7-0.7h-4V4.5c0-2.3-2.2-4.3-5-4.3s-5,1.9-5,4.3v1.2h-4C1.4,5.7,1.1,6,1.1,6.4L0,23.4
	c0,0.2,0.1,0.4,0.2,0.6s0.3,0.2,0.5,0.2h20c0.2,0,0.4-0.1,0.5-0.2c0.1-0.2,0.2-0.4,0.2-0.6L20.5,6.3z M7.3,4.5
	c0-1.5,1.6-2.8,3.5-2.8s3.5,1.2,3.5,2.8v1.2h-7V4.5z M5.8,7.1v1.6c0,0.4,0.3,0.8,0.8,0.8s0.8-0.3,0.8-0.8V7.1h6.9v1.6
	c0,0.4,0.3,0.8,0.8,0.8c0.5,0,0.8-0.3,0.8-0.8V7.1h3.3l0.6,10.4H1.9L2.6,7.1H5.8z M1.6,22.7l0.3-4.2h17.9l0.3,4.2H1.6z"/>
</svg>
