<?xml version="1.0" encoding="utf-8"?>
<!-- Generator: Adobe Illustrator 23.0.0, SVG Export Plug-In . SVG Version: 6.00 Build 0)  -->
<svg version="1.1" id="Layer_1" xmlns:sketch="http://www.bohemiancoding.com/sketch/ns"
	 xmlns="http://www.w3.org/2000/svg" xmlns:xlink="http://www.w3.org/1999/xlink" x="0px" y="0px" viewBox="0 0 21.4 22.4"
	 style="enable-background:new 0 0 21.4 22.4;" xml:space="preserve">
<style type="text/css">
	.st0{fill-rule:evenodd;clip-rule:evenodd;fill:#FFFFFF;}
</style>
<title></title>
<desc></desc>
<g id="Page-1">
	<g id="icon-111-search">
		<path id="search" class="st0" d="M13.8,15.8c-1.4,1-3.1,1.6-4.9,1.6c-4.7,0-8.5-3.8-8.5-8.5s3.8-8.5,8.5-8.5s8.5,3.8,8.5,8.5
			c0,2.3-1,4.5-2.5,6l6,6c0.3,0.3,0.3,0.7,0,1s-0.7,0.3-1,0L13.8,15.8L13.8,15.8z M8.9,16.4c4.1,0,7.5-3.4,7.5-7.5S13,1.4,8.9,1.4
			S1.4,4.7,1.4,8.9S4.7,16.4,8.9,16.4L8.9,16.4z"/>
	</g>
</g>
</svg>
