<?xml version="1.0" encoding="utf-8"?>
<!-- Generator: Adobe Illustrator 23.0.0, SVG Export Plug-In . SVG Version: 6.00 Build 0)  -->
<svg version="1.1" id="레이어_1" xmlns="http://www.w3.org/2000/svg" xmlns:xlink="http://www.w3.org/1999/xlink" x="0px"
	 y="0px" viewBox="0 0 623.6 475.6" style="enable-background:new 0 0 623.6 475.6;" xml:space="preserve">
<style type="text/css">
	.st0{fill:#FFFFFF;}
</style>
<g id="图层_2">
	<polygon class="st0" points="65.5,474.7 65.5,457.5 47.5,457.5 47.5,474.7 40.5,474.7 40.5,435.5 47.5,435.5 47.5,451.1 
		65.5,451.1 65.5,435.5 72.5,435.5 72.5,474.7 	"/>
	<path class="st0" d="M98.9,475.5c-10.2,0-18.9-7.7-18.9-20.4c0-12.7,8.8-20.5,18.9-20.5c10.1,0,18.8,7.6,18.8,20.4
		C117.7,467.8,109,475.5,98.9,475.5 M98.9,440.6c-7.5,0-11.8,6.2-11.8,14.5c0,7.9,4.6,14.5,11.8,14.5c7.4,0,11.7-6.3,11.7-14.5
		C110.6,447.1,106,440.6,98.9,440.6"/>
	<polygon class="st0" points="140.3,441.6 140.3,474.7 133.2,474.7 133.2,441.6 120.9,441.6 120.9,435.5 152.2,435.5 153.1,441.6 	
		"/>
	<polygon class="st0" points="160.8,474.7 160.8,435.5 185.2,435.5 185.2,441.6 167.8,441.6 167.8,451.3 181.8,451.3 182.8,457.4 
		167.8,457.4 167.8,468.7 185.8,468.7 185.8,474.7 	"/>
	<polygon class="st0" points="195.3,474.7 195.3,435.5 202.2,435.5 202.2,468.7 217.1,468.7 218.1,474.7 	"/>
	<path class="st0" d="M236.4,475.2c-4.7,0-9.5-1.2-13.5-2.9l1-6.3c3.7,1.9,8.8,3.4,12.8,3.4c4.5,0,7.7-2,7.7-5.3
		c0-3.3-2.1-4.6-7.7-6.4c-8.2-2.9-12.4-5.4-12.4-11.5c0-6.8,5.6-11.4,13.2-11.4c4.5,0,8.4,1,11.4,2.3l-1,6.5
		c-3.6-1.8-7.1-2.9-10.6-2.9c-3.9,0-6.5,2.1-6.5,4.7c0,3,2.2,4,8.3,6.2c8.2,2.9,11.9,5.7,11.9,11.8
		C250.8,470.6,245,475.2,236.4,475.2"/>
	<path class="st0" d="M306.1,475.2l-5.3-5.2c-3.2,3.5-7.3,5.6-12.2,5.6c-8.4,0-13-4.1-13-10.8c0-5.5,3.5-9.2,8.7-11.8
		c-2.5-2.8-3.8-5.1-3.8-8.7c0-5.3,3.9-9.7,10.9-9.7c3.9,0,7.5,1.1,10.2,2.5l-1,6.2c-3-1.9-6-3-8.9-3c-3.1,0-4.6,1.8-4.6,4.2
		c0,2.2,1,3.7,3.4,6.1l10,10.4c1.1-2.6,1.9-5.6,2.3-9.3l5.6,1.3c-0.6,4.6-2,8.7-3.9,12.2l8.4,8.5L306.1,475.2z M287.6,456.6
		c-3.4,1.8-5.2,4.3-5.2,7.4c0,3.7,2.5,6.2,6.9,6.2c2.9,0,5.8-1.2,8-3.8L287.6,456.6z"/>
	<path class="st0" d="M360.9,475.2l-11.4-15.7h-4.3v15.2h-7v-39.3h12.1c9,0,14.8,4.3,14.8,12c0,5.9-3.3,9.5-8.2,11.2l11.1,14.9
		L360.9,475.2z M350.4,441.5h-5.1v12.7h5.1c5,0,7.9-2.3,7.9-6.6C358.3,443.6,355.5,441.5,350.4,441.5"/>
	<polygon class="st0" points="376.1,474.7 376.1,435.5 400.5,435.5 400.5,441.6 383,441.6 383,451.3 397,451.3 398,457.4 383,457.4 
		383,468.7 401,468.7 401,474.7 	"/>
	<path class="st0" d="M422.2,475.2c-4.7,0-9.5-1.2-13.5-2.9l1-6.3c3.7,1.9,8.8,3.4,12.8,3.4c4.5,0,7.6-2,7.6-5.3
		c0-3.3-2.1-4.6-7.7-6.4c-8.2-2.9-12.4-5.4-12.4-11.5c0-6.8,5.5-11.4,13.1-11.4c4.5,0,8.4,1,11.4,2.3l-1,6.5
		c-3.6-1.8-7.1-2.9-10.6-2.9c-3.9,0-6.5,2.1-6.5,4.7c0,3,2.2,4,8.3,6.2c8.2,2.9,11.9,5.7,11.9,11.8
		C436.6,470.6,430.8,475.2,422.2,475.2"/>
	<path class="st0" d="M461.8,475.5c-10.1,0-18.9-7.7-18.9-20.4c0-12.7,8.9-20.5,18.9-20.5c10.1,0,18.8,7.6,18.8,20.4
		C480.6,467.8,471.8,475.5,461.8,475.5 M461.4,440.6c-7.4,0-11.7,6.2-11.7,14.5c0,7.9,4.5,14.5,11.7,14.5c7.3,0,11.7-6.3,11.7-14.5
		C473.1,447.1,468.5,440.6,461.4,440.6"/>
	<path class="st0" d="M511.3,475.2l-11.4-15.7h-4.2v15.2h-7v-39.3h12.2c8.9,0,14.8,4.3,14.8,12c0,5.9-3.3,9.5-8.2,11.2l11.1,14.9
		L511.3,475.2z M500.8,441.5h-5.1v12.7h5.1c5,0,7.9-2.3,7.9-6.6C508.7,443.6,505.9,441.5,500.8,441.5"/>
	<polygon class="st0" points="541,441.6 541,474.7 534,474.7 534,441.6 521.7,441.6 521.7,435.5 552.9,435.5 553.8,441.6 	"/>
	<path class="st0" d="M571.1,475.2c-4.7,0-9.4-1.2-13.5-2.9l1-6.3c3.7,1.9,8.8,3.4,12.8,3.4c4.5,0,7.7-2,7.7-5.3
		c0-3.3-2.1-4.6-7.7-6.4c-8.2-2.9-12.4-5.4-12.4-11.5c0-6.8,5.6-11.4,13.2-11.4c4.5,0,8.4,1,11.4,2.3l-1,6.5
		c-3.6-1.8-7-2.9-10.6-2.9c-3.9,0-6.5,2.1-6.5,4.7c0,3,2.2,4,8.3,6.2c8.2,2.9,11.8,5.7,11.8,11.8
		C585.5,470.6,579.7,475.2,571.1,475.2"/>
	<path class="st0" d="M357.7,114.2c0-16.8-11.5-30.1-32.3-36.7V39.5H364v93.3h-12.1C356.2,126.8,357.7,120.1,357.7,114.2 M304.4,0
		c-69.6,0-121.1,44.4-121.1,91.9c0,24.5,13.8,45.2,31.2,59.6l1.4-0.9c-13.8-11.4-26.3-29.3-26.3-53.8c3.7-52,67.7-81.3,124.4-81.3
		c40.3,0,112.8,9.3,112.8,76.7c0,35.2-37.6,80.9-116.5,80.9c-40.1,0-71.5-21.6-71.5-52.7c0-26.9,21.1-46.1,52.2-46.1
		c8.6,0,16.8,2.1,22.9,3.7c-13.1-2.4-33.1,1-43.7,9.3v45.5h38.3V81c7.3,1.3,12.9,4.1,16.8,6.5v30.9v14.4h10.1
		c-7.9,8.9-22.6,14.3-35.4,12.3v1.9c36.7,2.9,52.3-14.5,52.3-34.1c0-23-21.7-36.5-43.7-39.3v-34h-38.3V74c-25,5-49.5,19.9-49.5,44.5
		c0,37.8,53,61.3,98.7,61.3c70,0,123.8-33.9,123.8-81.3C443.3,41,365.5,0,304.4,0"/>
	<polygon class="st0" points="136.4,235.7 136.4,369.8 146.9,371.2 146.9,379 95.3,379 95.3,371.2 106.4,369.8 106.4,308.8 
		40.5,308.8 40.5,369.8 50.6,371.2 50.6,379 0,379 0,371.2 10.2,369.8 10.2,235.7 0,234.3 0,226.6 50.6,226.6 50.6,234.3 
		40.5,235.7 40.5,293 106.4,293 106.4,235.7 95.3,234.3 95.3,226.6 146.9,226.6 146.9,234.3 	"/>
	<path class="st0" d="M204.8,370.7l9.7,1.4v6.9h-47.4v-6.9l9.7-1.4v-91.8l-9.7-1.4v-7h37.7L204.8,370.7L204.8,370.7z M208.3,236.3
		c0,10.2-6.9,17.8-16.4,17.8c-9.7,0-16.4-6.9-16.4-17.1c0-9.7,6.7-17.3,16.4-17.3C201.4,219.7,208.3,227.3,208.3,236.3"/>
	<polygon class="st0" points="235.1,372.1 244.6,370.7 244.6,230.4 235.1,228.9 235.1,222 272.8,222 272.8,370.7 282.5,372.1 
		282.5,379 235.1,379 	"/>
	<path class="st0" d="M339.8,270.6h25.5v10.2h-25.5v64.5c0,16.6,3.5,21.9,18.5,21.9c5.5,0,10.4,0,15-1.1v7.4
		c-13.7,4.9-25.2,6.9-34.9,6.9c-21.8,0-26.9-9.9-26.9-28.8v-70.8h-19.8v-10.2h20.5v-22.7l27.5-8.3L339.8,270.6L339.8,270.6z"/>
	<path class="st0" d="M492.2,325.9c0,33.7-22.7,56.4-58.3,56.4c-34.5,0-56.5-14.8-56.5-56.4c0-34.9,22.7-58.3,58.3-58.3
		C470.8,267.6,492.2,288.6,492.2,325.9 M461.2,325.2c0-34.3-10.2-49.4-26.6-49.4c-16,0-26.1,14.4-26.1,49.4
		c0,34.4,10.2,48.7,26.1,48.7C451.7,374,461.2,360.3,461.2,325.2"/>
	<path class="st0" d="M623.6,372.1v6.9h-47.4v-6.9l9.5-1.4V309c0-17.1-6.3-24.8-19.3-24.8c-6,0-15.5,4.2-22.4,9.1v77.4l9.7,1.4v6.9
		h-47.6v-6.9l9.7-1.4v-91.1l-9.7-1.4v-7.6h37.9v15c11.8-9.5,23.1-17.1,39-17.1c21.3,0,30.8,12.5,30.8,37.1v65.1L623.6,372.1z"/>
	<path class="st0" d="M449.5,174.7L449.5,174.7l4.3-11.2h2.1v13.8h-1.6v-10.4h-0.1l-4,10.4h-1.5l-4.2-10.4h0v10.4h-1.7v-13.8h2.3
		L449.5,174.7z M434.7,164.7h-3.4v-1.3h8.5v1.3h-3.4v12.5h-1.7L434.7,164.7"/>
</g>
</svg>
