<?xml version="1.0" encoding="utf-8"?>
<!-- Generator: Adobe Illustrator 23.0.0, SVG Export Plug-In . SVG Version: 6.00 Build 0)  -->
<svg version="1.1" id="Layer_1" xmlns="http://www.w3.org/2000/svg" xmlns:xlink="http://www.w3.org/1999/xlink" x="0px" y="0px"
	 viewBox="0 0 70 70" style="enable-background:new 0 0 70 70;" xml:space="preserve">
<style type="text/css">
	.st0{fill:#FFFFFF;}
</style>
<path class="st0" d="M41.7,35c0,3.7-3,6.7-6.7,6.7s-6.7-3-6.7-6.7s3-6.7,6.7-6.7S41.7,31.3,41.7,35z"/>
<path class="st0" d="M50.7,23.1c-0.3-0.9-0.8-1.7-1.5-2.3c-0.6-0.7-1.4-1.2-2.3-1.5c-0.7-0.3-1.8-0.6-3.7-0.7
	c-2.1-0.1-2.8-0.1-8.1-0.1c-5.4,0-6,0-8.1,0.1c-2,0.1-3,0.4-3.7,0.7c-0.9,0.3-1.7,0.8-2.3,1.5c-0.7,0.6-1.2,1.4-1.5,2.3
	c-0.3,0.7-0.6,1.8-0.7,3.7c-0.1,2.1-0.1,2.8-0.1,8.1c0,5.4,0,6,0.1,8.1c0.1,2,0.4,3,0.7,3.7c0.3,0.9,0.8,1.7,1.5,2.3
	c0.6,0.7,1.4,1.2,2.3,1.5c0.7,0.3,1.8,0.6,3.7,0.7c2.1,0.1,2.8,0.1,8.1,0.1c5.4,0,6,0,8.1-0.1c2-0.1,3-0.4,3.7-0.7
	c1.8-0.7,3.1-2.1,3.8-3.8c0.3-0.7,0.6-1.8,0.7-3.7c0.1-2.1,0.1-2.8,0.1-8.1c0-5.4,0-6-0.1-8.1C51.3,24.9,50.9,23.9,50.7,23.1z
	 M35,45.3c-5.7,0-10.3-4.6-10.3-10.3S29.3,24.7,35,24.7c5.7,0,10.3,4.6,10.3,10.3S40.7,45.3,35,45.3z M45.7,26.7
	c-1.3,0-2.4-1.1-2.4-2.4s1.1-2.4,2.4-2.4s2.4,1.1,2.4,2.4C48.1,25.6,47.1,26.7,45.7,26.7z"/>
<path class="st0" d="M35,0C15.7,0,0,15.7,0,35s15.7,35,35,35s35-15.7,35-35S54.3,0,35,0z M55,43.3c-0.1,2.1-0.4,3.6-0.9,4.9
	c-1,2.7-3.2,4.8-5.9,5.9c-1.3,0.5-2.7,0.8-4.9,0.9c-2.1,0.1-2.8,0.1-8.3,0.1c-5.5,0-6.1,0-8.3-0.1c-2.1-0.1-3.6-0.4-4.9-0.9
	c-1.3-0.5-2.6-1.3-3.6-2.3c-1-1-1.8-2.2-2.3-3.6c-0.5-1.3-0.8-2.7-0.9-4.9c-0.1-2.1-0.1-2.8-0.1-8.3s0-6.1,0.1-8.3
	c0.1-2.1,0.4-3.6,0.9-4.9c0.5-1.3,1.3-2.6,2.3-3.6c1-1,2.2-1.8,3.6-2.3c1.3-0.5,2.7-0.8,4.9-0.9c2.1-0.1,2.8-0.1,8.3-0.1
	s6.1,0,8.3,0.1c2.1,0.1,3.6,0.4,4.9,0.9c1.3,0.5,2.6,1.3,3.6,2.3c1,1,1.8,2.2,2.3,3.6c0.5,1.3,0.8,2.7,0.9,4.9
	c0.1,2.1,0.1,2.8,0.1,8.3S55.1,41.1,55,43.3z"/>
</svg>
