<?xml version="1.0" encoding="utf-8"?>
<!-- Generator: Adobe Illustrator 23.0.0, SVG Export Plug-In . SVG Version: 6.00 Build 0)  -->
<svg version="1.1" id="Layer_1" xmlns="http://www.w3.org/2000/svg" xmlns:xlink="http://www.w3.org/1999/xlink" x="0px" y="0px"
	 viewBox="0 0 70 70" style="enable-background:new 0 0 70 70;" xml:space="preserve">
<style type="text/css">
	.st0{fill:#FFFFFF;}
</style>
<path class="st0" d="M35,0C15.7,0,0,15.7,0,35s15.7,35,35,35s35-15.7,35-35S54.3,0,35,0z M51,27.3c0,0.3,0,0.7,0,1
	c0,10.6-8.1,22.9-22.9,22.9h0h0c-4.5,0-8.8-1.3-12.3-3.6c0.6,0.1,1.3,0.1,1.9,0.1c3.8,0,7.2-1.3,10-3.4c-3.5-0.1-6.5-2.4-7.5-5.6
	c0.5,0.1,1,0.1,1.5,0.1c0.7,0,1.4-0.1,2.1-0.3c-3.7-0.7-6.4-4-6.4-7.9c0,0,0-0.1,0-0.1c1.1,0.6,2.3,1,3.6,1
	c-2.2-1.4-3.6-3.9-3.6-6.7c0-1.5,0.4-2.9,1.1-4c4,4.9,9.9,8.1,16.6,8.4c-0.1-0.6-0.2-1.2-0.2-1.8c0-4.4,3.6-8,8-8
	c2.3,0,4.4,1,5.9,2.5c1.8-0.4,3.5-1,5.1-1.9c-0.6,1.9-1.9,3.4-3.5,4.4c1.6-0.2,3.2-0.6,4.6-1.3C53.9,24.7,52.5,26.2,51,27.3z"/>
</svg>
